# xmcd CD database file
#
# Track frame offsets:
#	187
#	12937
#	23662
#	34212
#	46462
#	58712
#	71612
#	82712
#	90887
#	101512
#	115537
#
# Disc length: 1674 seconds
#
# Revision: 1
# Processed by: cddbd v1.5PL3 Copyright (c) Steve Scherf et al.
# Submitted via: CDex 1.50
#
DISCID=7606880b
DTITLE=Varios - Stone Rock Blues
DYEAR=1994
DGENRE=Blues
TTITLE0=Carol (Chuck Berry)
TTITLE1=Look What You've Done (Muddy Waters)
TTITLE2=Mona (Bo Diddley)
TTITLE3=You Can't Catch Me (Chuck Berry)
TTITLE4=I Can't Be Satisfied (Muddy Waters)
TTITLE5=I Just Want To Make Love To You (Muddy Waters)
TTITLE6=Little Red Rooster (Howlin' Wolf)
TTITLE7=Come On (Chuck Berry)
TTITLE8=Not Fade Away (Buddy Holly)
TTITLE9=Rollin' Stone (Muddy Waters)
TTITLE10=Susie Q (Dale Hawkins)
EXTD=YEAR: 1994
EXTT0=
EXTT1=
EXTT2=
EXTT3=
EXTT4=
EXTT5=
EXTT6=
EXTT7=
EXTT8=
EXTT9=
EXTT10=
PLAYORDER=
